<?xml version="1.0" encoding="utf-8"?>
<!-- Generator: Adobe Illustrator 16.0.3, SVG Export Plug-In . SVG Version: 6.00 Build 0)  -->
<!DOCTYPE svg PUBLIC "-//W3C//DTD SVG 1.1//EN" "http://www.w3.org/Graphics/SVG/1.1/DTD/svg11.dtd">
<svg version="1.1" id="Layer_1" xmlns="http://www.w3.org/2000/svg" xmlns:xlink="http://www.w3.org/1999/xlink" x="0px" y="0px"
	 width="458.333px" height="380.208px" viewBox="20.833 93.75 458.333 380.208"
	 enable-background="new 20.833 93.75 458.333 380.208" xml:space="preserve">
<g>
	<path d="M250,473.958l-78.125-88.542H52.083c-17.708,0-31.25-13.541-31.25-31.25V125c0-17.708,13.542-31.25,31.25-31.25h395.833
		c17.708,0,31.25,13.542,31.25,31.25v229.166c0,17.709-13.542,31.25-31.25,31.25H328.125L250,473.958z M52.083,114.583
		c-6.25,0-10.417,4.167-10.417,10.417v229.166c0,6.25,4.167,10.418,10.417,10.418h130.208L250,442.708l67.708-78.124h130.209
		c6.25,0,10.416-4.168,10.416-10.418V125c0-6.25-4.166-10.417-10.416-10.417H52.083z"/>
</g>
</svg>
