<?xml version="1.0" encoding="utf-8"?>
<!-- Generator: Adobe Illustrator 16.0.3, SVG Export Plug-In . SVG Version: 6.00 Build 0)  -->
<!DOCTYPE svg PUBLIC "-//W3C//DTD SVG 1.1//EN" "http://www.w3.org/Graphics/SVG/1.1/DTD/svg11.dtd">
<svg version="1.1" id="Layer_1" xmlns="http://www.w3.org/2000/svg" xmlns:xlink="http://www.w3.org/1999/xlink" x="0px" y="0px"
	 width="282.369px" height="71.833px" viewBox="0 0 282.369 71.833" enable-background="new 0 0 282.369 71.833"
	 xml:space="preserve">
<g>
	<g>
		<path fill="#FFFFFF" d="M81.102,51.47v-8.021h14.322c0.84,0,1.26-0.42,1.26-1.261v-2.1c0-0.841-0.42-1.261-1.26-1.261h-8.484
			c-3.92,0-5.88-1.861-5.88-5.585V25.64c0-4.06,1.89-6.09,5.67-6.09h16.464v8.022H89.585c-0.84,0-1.26,0.42-1.26,1.26v2.058
			c0,0.84,0.42,1.26,1.26,1.26h8.736c3.724,0,5.586,1.876,5.586,5.628v7.476c0,4.144-2.03,6.216-6.09,6.216H81.102z"/>
		<path fill="#FFFFFF" d="M113.231,51.47c-3.92,0-5.88-1.861-5.88-5.586V26.816h7.266v16.044c0,0.896,0.42,1.344,1.26,1.344h4.914
			c0.84,0,1.26-0.42,1.26-1.26V26.816h7.182v18.9c0,3.836-1.876,5.754-5.628,5.754H113.231z"/>
		<path fill="#FFFFFF" d="M140.152,51.47v7.813h-7.266V26.816h16.464c3.92,0,5.88,1.876,5.88,5.628v13.23
			c0,3.864-1.918,5.796-5.754,5.796H140.152z M147.964,35.426c0-0.896-0.42-1.344-1.26-1.344h-6.552v10.08h6.552
			c0.84,0,1.26-0.42,1.26-1.26V35.426z"/>
		<path fill="#FFFFFF" d="M166.024,51.47v7.813h-7.266V26.816h16.463c3.92,0,5.881,1.876,5.881,5.628v13.23
			c0,3.864-1.918,5.796-5.754,5.796H166.024z M173.836,35.426c0-0.896-0.42-1.344-1.26-1.344h-6.552v10.08h6.552
			c0.84,0,1.26-0.42,1.26-1.26V35.426z"/>
		<path fill="#FFFFFF" d="M190.343,51.47c-3.921,0-5.881-1.861-5.881-5.586V32.612c0-3.864,1.918-5.796,5.754-5.796h10.836
			c3.809,0,5.713,1.946,5.713,5.838v13.062c0,3.836-1.877,5.754-5.629,5.754H190.343z M199.583,35.384c0-0.84-0.42-1.26-1.26-1.26
			h-5.334c-0.84,0-1.261,0.42-1.261,1.26v7.477c0,0.896,0.421,1.344,1.261,1.344h5.334c0.84,0,1.26-0.42,1.26-1.26V35.384z"/>
		<path fill="#FFFFFF" d="M210.292,51.47V32.612c0-1.932,0.462-3.381,1.386-4.347c0.925-0.966,2.394-1.449,4.41-1.449h8.147v7.266
			h-5.375c-0.84,0-1.261,0.42-1.261,1.26V51.47H210.292z"/>
		<path fill="#FFFFFF" d="M232.552,51.47c-4.004,0-6.006-1.807-6.006-5.418V19.97h7.266v7.098h5.713v6.636h-5.713v9.073
			c0,0.951,0.363,1.428,1.092,1.428h4.578v7.266H232.552z"/>
		<path fill="#FFFFFF" d="M243.765,24.8c-1.008,0-1.512-0.546-1.512-1.638v-2.814c0-1.092,0.561-1.638,1.68-1.638h3.949
			c1.063,0,1.596,0.546,1.596,1.638v2.814c0,1.092-0.533,1.638-1.596,1.638H243.765z M242.253,51.47V26.816h7.266V51.47H242.253z"/>
		<path fill="#FFFFFF" d="M269.259,51.47l-4.41-6.846l-4.242,6.846h-9.029l8.651-12.6l-8.526-12.054h9.115l4.283,6.636l4.116-6.636
			h8.778l-8.484,12.054l8.82,12.6H269.259z"/>
	</g>
	<path fill="#FFFFFF" d="M37.384,2.054c-18.701,0-33.862,15.16-33.862,33.862c0,18.703,15.161,33.863,33.862,33.863
		c18.702,0,33.862-15.16,33.862-33.863C71.247,17.214,56.086,2.054,37.384,2.054z M15.697,21.167l6.073,3.472
		c2.601-1.447,3.76-3.761,3.76-6.651l-6.074-3.472l0.578-1.156c9.254,0,10.7,3.471,10.701,8.676c0,1.447,5.204,6.65,7.52,8.964
		l-4.628,4.628c-2.313-2.313-6.65-6.651-8.097-6.651c-5.786,0-8.677-2.891-10.122-7.229L15.697,21.167z M35.074,43.147
		c-3.472,0-5.208,4.047-5.208,5.785l-9.544,9.543c-2.89,0-6.072-3.182-6.072-6.072l9.545-9.545c1.735,0,5.782-1.736,5.782-5.205
		l1.158-1.158l2.313,1.447l16.774-16.774l0.576-2.313l5.784-4.049l1.735,1.736l-4.05,5.784l-2.312,0.577L34.785,39.678l1.443,2.313
		L35.074,43.147z M60.232,49.51l-6.074-3.471c-2.601,1.447-3.759,3.76-3.759,6.652l6.074,3.469l-0.578,1.158
		c-9.255,0-10.7-3.471-10.7-8.676c0-1.449-4.628-6.074-8.098-9.545l4.626-4.627c3.472,3.471,7.232,7.229,8.675,7.23
		c5.783,0,8.677,2.893,10.122,7.23L60.232,49.51z"/>
</g>
</svg>
