<?xml version="1.0" ?><!DOCTYPE svg  PUBLIC '-//W3C//DTD SVG 1.1//EN'  'http://www.w3.org/Graphics/SVG/1.1/DTD/svg11.dtd'><svg enable-background="new 0 0 50 50" id="Layer_1" version="1.1" viewBox="0 0 50 50" xml:space="preserve" xmlns="http://www.w3.org/2000/svg" xmlns:xlink="http://www.w3.org/1999/xlink"><g><g><path d="M21.07145,1l-5.38501,0c-1.81946,0-3.29625,1.47679-3.29625,3.29626l-0.00001,5.73189l1.13347,0l0,1.46922    h-1.13347l-0.00006,34.20631c0,1.81952,1.47678,3.29631,3.29624,3.29631l5.38501,0    c0.66905-1.49313,2.17846-2.53752,3.93268-2.53752c1.746,0,3.25546,1.04439,3.93267,2.53752l5.38496,0    c1.81945,0,3.28808-1.4768,3.28808-3.29631l0.00006-34.20631l-0.93836,0l0-1.46922h0.93836l0.00001-5.73189    c0-1.81946-1.46861-3.29626-3.28807-3.29626l-5.38496,0c-0.68539,1.50125-2.18668,2.53747-3.93268,2.53747    C23.2499,3.53747,21.74862,2.50125,21.07145,1z M34.97321,10.02815v1.46923l-1.87667,0l0-1.46923L34.97321,10.02815z     M31.39829,10.02815l0,1.46922h-1.87667l0-1.46923L31.39829,10.02815z M27.82337,10.02815l0,1.46923l-1.87667,0l0-1.46922    H27.82337z M24.24846,10.02815l0,1.46922h-1.87667l0-1.46923L24.24846,10.02815z M20.67354,10.02815l0,1.46923l-1.87667,0    l0-1.46922H20.67354z M17.09857,10.02815l0,1.46923l-1.87662,0l0-1.46923L17.09857,10.02815z" fill="#E7E3E6"/></g><g><g><g><g><path d="M33.09967,37.49744c0,1.23821-0.4717,2.47641-1.4143,3.41981       c-1.835,1.8342-4.79186,1.88041-6.68342,0.13864c-1.89157,1.74178-4.85002,1.69397-6.6874-0.14263       c-1.8334-1.83421-1.8804-4.79188-0.13863-6.68345c-1.74415-1.89157-1.70033-4.85243,0.13467-6.68743l0,0       c1.83739-1.83659,4.79744-1.88281,6.69139-0.13864c1.89157-1.74178,4.84843-1.69556,6.68342,0.13864       c1.83578,1.8366,1.88438,4.79586,0.14261,6.68743C32.67579,35.1501,33.09967,36.32377,33.09967,37.49744z M17.31141,37.49982       c0,1.13144,0.43026,2.26367,1.29158,3.125c1.72583,1.72504,4.5313,1.72664,6.25475,0.00399l0.14422-0.14422l0.14422,0.14422       c1.72344,1.72265,4.52732,1.72266,6.25076,0c1.72424-1.72504,1.72664-4.52974,0.004-6.25478l-0.14422-0.14422l0.14422-0.14422       c1.72265-1.72265,1.72026-4.52894-0.00397-6.25478c-1.72344-1.72265-4.52732-1.72265-6.25076,0l-0.14422,0.14422       l-0.14422-0.14422c-1.72583-1.72504-4.5329-1.72505-6.25873,0l0,0c-1.72344,1.72425-1.71947,4.52894,0.00397,6.25478       l0.14422,0.14422L18.603,34.37403C17.74168,35.23535,17.31141,36.36759,17.31141,37.49982z" fill="#656766"/></g></g></g><g><g><path d="M19.29343,28.51617c-3.1558,3.15581-3.15581,8.26745,0.00002,11.42331      c3.15001,3.15005,8.26161,3.15007,11.41741-0.00574c3.15006-3.15007,3.15007-8.26171,0.00006-11.41176      C27.55509,25.36611,22.44349,25.3661,19.29343,28.51617z M27.82621,37.04905c-1.55772,1.55773-4.08468,1.55772-5.64237,0.00002      c-1.55772-1.55774-1.55771-4.08472,0.00001-5.64245c1.55772-1.55773,4.08468-1.55772,5.6424,0.00002      C29.38394,32.96434,29.38394,35.49132,27.82621,37.04905z" fill="#FFC966"/></g></g><g><g><g><path d="M22.18385,37.04907c-0.57013-0.57014-0.9267-1.27117-1.07949-2.00597l-3.1371,3.13711       c0.35375,0.62891,0.79078,1.22384,1.32619,1.75926c0.53323,0.53324,1.12587,0.96854,1.75252,1.32124l3.13482-3.13482       C23.44933,37.97202,22.75162,37.61685,22.18385,37.04907z" fill="#EC6E62"/></g></g><g><g><path d="M27.82626,31.40664c0.56777,0.56778,0.92293,1.2655,1.07681,1.99695l3.12911-3.12912       c-0.35273-0.62662-0.78803-1.21926-1.32126-1.7525c-0.53541-0.53542-1.13034-0.97245-1.75921-1.32624l-3.1314,3.13141       C26.5551,30.47993,27.25612,30.8365,27.82626,31.40664z" fill="#EC6E62"/></g></g><g><g><path d="M17.96727,30.27539l3.13709,3.13713c0.15276-0.73476,0.50936-1.43575,1.0795-2.00589       c0.56778-0.56778,1.26552-0.92304,1.99701-1.07689l-3.1348-3.13484c-0.62665,0.3527-1.21936,0.788-1.75263,1.32127       C18.75802,29.05158,18.32102,29.64648,17.96727,30.27539z" fill="#EC6E62"/></g></g><g><g><path d="M32.03217,38.18113l-3.12906-3.1291c-0.15385,0.73149-0.50911,1.42924-1.07689,1.99702       c-0.57014,0.57014-1.27112,0.92674-2.00588,1.07949l3.13135,3.13139c0.62887-0.35379,1.22376-0.79078,1.75918-1.3262       C31.24413,39.40046,31.67947,38.80779,32.03217,38.18113z" fill="#EC6E62"/></g></g></g></g><g><path d="M17.36793,18.36074c-0.16334-0.0494-0.29242-0.11553-0.38724-0.1976l0.14581-0.32828    c0.09243,0.0741,0.20716,0.13386,0.34182,0.18007c0.13545,0.04701,0.27091,0.07012,0.40716,0.07012    c0.16892,0,0.29481-0.02709,0.37847-0.08127c0.08286-0.05418,0.1251-0.1251,0.1251-0.21434    c0-0.06454-0.0239-0.11792-0.07012-0.16015c-0.04621-0.04223-0.10518-0.0749-0.17689-0.0988s-0.16892-0.05099-0.29162-0.08127    c-0.1737-0.04143-0.31314-0.08207-0.4207-0.1235c-0.10677-0.04064-0.1992-0.10518-0.27569-0.19282    c-0.07649-0.08765-0.11474-0.20637-0.11474-0.35537c0-0.1251,0.03347-0.23983,0.10199-0.34262    c0.06773-0.10279,0.17051-0.18406,0.30836-0.24461c0.13705-0.06056,0.30517-0.09083,0.50437-0.09083    c0.13864,0,0.27489,0.01753,0.40875,0.05179c0.13386,0.03426,0.25019,0.08446,0.3474,0.149l-0.13306,0.32828    c-0.0996-0.05896-0.20318-0.10279-0.31154-0.13306c-0.10836-0.03028-0.21354-0.04542-0.31473-0.04542    c-0.16653,0-0.29083,0.02789-0.3713,0.08446c-0.08127,0.05577-0.12191,0.13067-0.12191,0.2239    c0,0.06454,0.02311,0.11713,0.06932,0.15856c0.04701,0.04143,0.10597,0.0733,0.17689,0.09721    c0.07171,0.0239,0.16892,0.05099,0.29242,0.08127c0.16892,0.03904,0.30676,0.07968,0.41512,0.12191    s0.20079,0.10597,0.27728,0.19282c0.07729,0.08685,0.11553,0.20318,0.11553,0.35059c0,0.1251-0.03426,0.23903-0.10279,0.34023    c-0.06773,0.10199-0.17131,0.18326-0.30915,0.24382c-0.13864,0.06056-0.30756,0.09083-0.50676,0.09083    C17.70098,18.43564,17.53127,18.41014,17.36793,18.36074z" fill="#656766"/><path d="M19.45551,18.17111c-0.17529-0.17609-0.26294-0.42867-0.26294-0.75775v-1.28123h0.4223v1.2653    c0,0.4454,0.19202,0.6685,0.57767,0.6685c0.38246,0,0.57369-0.2231,0.57369-0.6685v-1.2653h0.41513l0,1.28123    c0,0.32907-0.08685,0.58165-0.26055,0.75774c-0.1745,0.17609-0.41831,0.26453-0.73225,0.26453    C19.87541,18.43564,19.6308,18.34719,19.45551,18.17111z" fill="#656766"/><path d="M23.22112,16.22934c0.14581,0.06454,0.25816,0.15776,0.33545,0.27888    c0.07808,0.12111,0.11713,0.26533,0.11713,0.43186c0,0.16414-0.03904,0.30756-0.11713,0.42947    c-0.07729,0.12191-0.18963,0.21593-0.33545,0.28047c-0.14581,0.06534-0.31792,0.09721-0.51393,0.09721h-0.51313v0.65576h-0.4215    l0-2.27084h0.93463C22.9032,16.13213,23.07531,16.164,23.22112,16.22934z M23.10558,17.27392    c0.09561-0.07808,0.14342-0.18963,0.14342-0.33385c0-0.14502-0.04781-0.25657-0.14342-0.33465    c-0.09482-0.07808-0.23425-0.11633-0.41831-0.11633h-0.49321v0.90196h0.49321    C22.87133,17.39105,23.01077,17.35201,23.10558,17.27392z" fill="#656766"/><path d="M25.54454,16.22934c0.14581,0.06454,0.25816,0.15776,0.33545,0.27888    c0.07808,0.12111,0.11713,0.26533,0.11713,0.43186c0,0.16414-0.03904,0.30756-0.11713,0.42947    c-0.07729,0.12191-0.18964,0.21593-0.33545,0.28047c-0.14581,0.06534-0.31792,0.09721-0.51393,0.09721h-0.51313v0.65576h-0.4215    v-2.27084h0.93463C25.22663,16.13213,25.39873,16.164,25.54454,16.22934z M25.42901,17.27392    c0.09562-0.07808,0.14342-0.18963,0.14342-0.33385c0-0.14502-0.04781-0.25657-0.14342-0.33465    c-0.09482-0.07809-0.23425-0.11633-0.41831-0.11633h-0.49321l0,0.90196h0.49321    C25.19476,17.39105,25.33419,17.35201,25.42901,17.27392z" fill="#656766"/><path d="M26.88553,18.28425c-0.18565-0.1004-0.33146-0.23983-0.43744-0.41831s-0.15936-0.37768-0.15936-0.59839    c0-0.22071,0.05338-0.4207,0.15936-0.59839c0.10597-0.17848,0.25178-0.31871,0.43744-0.41911    c0.18645-0.1004,0.39521-0.15059,0.62627-0.15059c0.23186,0,0.44062,0.0502,0.62627,0.15059    c0.18645,0.1004,0.33226,0.23983,0.43823,0.41672c0.10597,0.17768,0.15856,0.37768,0.15856,0.60078    c0,0.2223-0.05259,0.42309-0.15856,0.59998c-0.10597,0.17768-0.25178,0.31632-0.43823,0.41672    c-0.18565,0.10119-0.39441,0.15139-0.62627,0.15139C27.28074,18.43564,27.07198,18.38544,26.88553,18.28425z M27.92056,17.96314    c0.12111-0.06773,0.21672-0.16334,0.28605-0.28525c0.06932-0.12191,0.10358-0.25896,0.10358-0.41035    c0-0.15139-0.03426-0.28844-0.10358-0.41035c-0.06932-0.1227-0.16494-0.21752-0.28605-0.28605    c-0.12111-0.06773-0.25736-0.10199-0.40875-0.10199c-0.15139,0-0.28764,0.03426-0.40875,0.10199    c-0.12111,0.06852-0.21593,0.16334-0.28525,0.28605c-0.06932,0.12191-0.10358,0.25896-0.10358,0.41035    c0,0.15139,0.03426,0.28844,0.10358,0.41035c0.06932,0.12191,0.16414,0.21752,0.28525,0.28525    c0.12111,0.06853,0.25736,0.10279,0.40875,0.10279C27.6632,18.06593,27.79945,18.03167,27.92056,17.96314z" fill="#656766"/><path d="M30.66867,18.40297l-0.46453-0.66532c-0.01912,0.00239-0.0486,0.00319-0.08685,0.00319h-0.51313v0.66213    h-0.4215l0-2.27084h0.93463c0.19601,0,0.36812,0.03187,0.51393,0.09721c0.14581,0.06454,0.25816,0.15776,0.33545,0.27888    c0.07808,0.12111,0.11713,0.26533,0.11713,0.43186c0,0.17051-0.04143,0.31792-0.1251,0.44062    c-0.08287,0.1235-0.20238,0.21513-0.35855,0.27569l0.52269,0.74659H30.66867z M30.51569,16.60542    c-0.09482-0.07808-0.23425-0.11633-0.41831-0.11633h-0.49321v0.90515h0.49321c0.18406,0,0.3235-0.03984,0.41831-0.11872    c0.09561-0.07888,0.14342-0.19123,0.14342-0.33545C30.65911,16.79506,30.61131,16.68351,30.51569,16.60542z" fill="#656766"/><path d="M31.98258,16.48909h-0.75296v-0.35696h1.92743v0.35696h-0.75296v1.91388h-0.4215V16.48909z" fill="#656766"/><path d="M19.86505,20.16228h-0.75296v-0.35696h1.92743v0.35696h-0.75296l0,1.91388h-0.4215V20.16228z" fill="#656766"/><path d="M21.35743,19.80532h0.4215l0,2.27084h-0.4215V19.80532z" fill="#656766"/><path d="M22.82192,21.95744c-0.18485-0.1004-0.32987-0.23904-0.43425-0.41672    c-0.10518-0.17689-0.15776-0.37768-0.15776-0.59998c0-0.2231,0.05338-0.42309,0.15936-0.60078    c0.10597-0.17689,0.25099-0.31632,0.43584-0.41672s0.39202-0.15059,0.62149-0.15059c0.18645,0,0.35616,0.03267,0.50915,0.09721    c0.15378,0.06454,0.28366,0.15936,0.38963,0.28206l-0.2725,0.25657c-0.16414-0.17768-0.36652-0.26613-0.60636-0.26613    c-0.15617,0-0.29561,0.03426-0.41911,0.10199c-0.1227,0.06852-0.21912,0.16334-0.28844,0.28445    c-0.06932,0.12111-0.10358,0.25816-0.10358,0.41194s0.03426,0.29083,0.10358,0.41194    c0.06932,0.12111,0.16573,0.21593,0.28844,0.28366c0.1235,0.06852,0.26294,0.10279,0.41911,0.10279    c0.23983,0,0.44222-0.09004,0.60635-0.26931l0.2725,0.25896c-0.10597,0.1235-0.23664,0.21752-0.39122,0.28286    c-0.15458,0.06454-0.32429,0.09721-0.51074,0.09721C23.21394,22.10883,23.00678,22.05863,22.82192,21.95744z" fill="#656766"/><path d="M25.53259,21.12559l-0.36015,0.36971v0.58086h-0.4215l0-2.27084h0.4215v1.16411l1.12267-1.1641h0.47409    l-0.95455,1.01511l1.01271,1.25574h-0.49321L25.53259,21.12559z" fill="#656766"/><path d="M28.82013,21.72239v0.35377H27.1166l0-2.27084h1.65811v0.35298H27.5381v0.59122h1.09638v0.3466H27.5381    v0.62627H28.82013z" fill="#656766"/><path d="M29.75078,20.16228h-0.75296v-0.35696h1.92743v0.35696h-0.75296l0,1.91388h-0.4215V20.16228z" fill="#656766"/></g></g></svg>